<svg xmlns="http://www.w3.org/2000/svg" width="27" height="32" viewBox="0 0 27 32">
    <g fill="none" fill-rule="evenodd" stroke="#9CA0AB">
        <path d="M24.578 5.452c-3.921-.145-7.745-1.645-10.636-4.21-.469-.346-1.022-.298-1.324 0-2.99 2.613-6.765 4.113-10.638 4.21-.539 0-.98.435-.98.967v14.565c0 .146.049.29.098.388 1.912 4.258 5.686 7.45 10.294 8.758 2.35.633 1.536.62 3.775-.049a15.842 15.842 0 0 0 10.294-8.758c.049-.145.098-.242.098-.387V6.419c-.05-.532-.49-.967-.98-.967z"/>
        <g transform="rotate(-45 26.79 2.327)">
            <ellipse cx="11.52" cy="2.177" rx="2.206" ry="2.177"/>
            <path stroke-linecap="round" d="M9.277 2.42H.8a.8.8 0 0 0-.8.8V4.53"/>
        </g>
    </g>
</svg>
